<?xml version="1.0" encoding="UTF-8"?>
<svg width="436px" height="507px" viewBox="0 0 436 507" version="1.1" xmlns="http://www.w3.org/2000/svg" xmlns:xlink="http://www.w3.org/1999/xlink">
    <!-- Generator: Sketch 50.2 (55047) - http://www.bohemiancoding.com/sketch -->
    <title>Group</title>
    <desc>Created with Sketch.</desc>
    <defs></defs>
    <g id="export-boards" stroke="none" stroke-width="1" fill="none" fill-rule="evenodd">
        <g id="Artboard" transform="translate(-16.000000, -16.000000)" fill="#FFFFFF">
            <g id="Group" transform="translate(16.000000, 16.000000)">
                <path d="M80.8783978,311 L80.8783978,121 L55.8562076,121 L217.499556,0 L379.142905,121 L356.12249,121 L356.12249,311 L436,311 C424.494645,421.139972 331.283065,507 218,507 C104.716935,507 11.5053546,421.139972 0,311 L80.8783978,311 Z M142.933429,131 L294.067458,131 L294.067458,348 C294.067458,374.509668 272.577126,396 246.067458,396 L190.933429,396 C164.423761,396 142.933429,374.509668 142.933429,348 L142.933429,131 Z M219,61 L291,84.2999267 L263.498447,122 L174.501553,122 L147,84.2999267 L219,61 Z" id="Combined-Shape"></path>
                <polygon id="Rectangle-3" points="162 250 276 250 276 311 162 311"></polygon>
            </g>
        </g>
    </g>
</svg>